<svg id="Layer_1" data-name="Layer 1" xmlns="http://www.w3.org/2000/svg" viewBox="0 0 656.35 167.74"><title>logo_txt</title><path d="M501.65,386.64A334.79,334.79,0,0,0,488.29,431c-4.45,19.3-8.06,41.78-8.06,60.23,0,25.24,6.79,33.29,13.57,33.29s16.12-7.85,23.54-33.72l5.09,1.48c-7.42,26.3-19.3,40.5-33.93,40.5-12.09,0-26.08-9.33-26.08-40.5,0-17.18,4.24-40.08,10.6-62.35a300.36,300.36,0,0,1,16.75-45.59c-12.09-2.54-24.6-4.88-35.2-4.88-27.36,0-47.08,15.69-47.08,41.78,0,16.75,8.27,30.11,25.45,31l0.21,3.61a23.8,23.8,0,0,1-8.06,1.27c-15.9,0-29.48-12.94-29.48-32.23,0-30.11,32.66-57.26,73.16-57.26,21.63,0,53,7.85,70.62,7.85,6.36,0,11.66-1.06,15.27-6.15l3.61,1.7c-2.12,12.72-8.69,20.36-25,20.36C524.55,391.31,513.1,389.19,501.65,386.64Z" transform="translate(-395.62 -367.56)"/><path d="M541.1,446c3.6-2.33,10-5.09,13.36-5.09,2.54,0,3.82,1.48,3.82,4.67,0,3-1.27,10-3,18.24-2.33,11.66-4.88,26.3-4.88,38,0,12.94,3.18,22.27,9.75,22.27,8.48,0,18.45-15.27,26.3-58.74l5.09,0.64c-9.54,53-22.27,66.38-36.05,66.38-11.66,0-21.42-9.33-21.42-31.17C534.1,485.89,539,465.32,541.1,446Zm6.36-36.48a11,11,0,1,1,22.06,0A11,11,0,1,1,547.46,409.55Z" transform="translate(-395.62 -367.56)"/><path d="M581.81,506.67c0-19.3,5.09-40.29,7-60.65,3.6-2.33,10.18-5.09,13.57-5.09,2.54,0,3.82,1.7,3.82,4.67,0,4.67-3.6,17.81-5.73,32a191.93,191.93,0,0,0-2.33,26.3h0.64c1.48-7.85,3.82-18.24,7.63-27.57,7.85-19.72,19.09-34.35,33.29-36.26a31.54,31.54,0,0,1,19.09,12.09c-3,14.42-8.06,30.54-8.06,47.5,0,14.42,3.6,24.39,10.18,24.39,7.63,0,18-14.42,25.87-58.74l5.09,0.64c-9.33,53.65-22.69,66.38-35.84,66.38-11.45,0-21.84-9.75-21.84-32.66,0-17.6,5.73-35.42,5.73-42.2,0-3.82-1.7-6.36-5.51-6.36-9.75,0-19.51,18.66-24,30.75-5.73,15.27-8.48,32.23-9.33,46.65-4.24,2.33-8.48,3.6-10.6,3.6C583.09,532.12,581.81,516.64,581.81,506.67Z" transform="translate(-395.62 -367.56)"/><path d="M675.12,498.83c0-14.63,4.88-29.9,15.06-41.14,9.12-10,22.06-17,35.42-17a27.76,27.76,0,0,1,8.69,1.27c4.67-29.48,7.85-50,9.33-68.29,4.24-2.76,11.66-5.94,15.27-5.94,2.33,0,3.6,1.48,3.6,4.88,0,6.36-4.45,28.21-8.27,49-5.73,31.39-9.33,58.11-9.33,76.13,0,14.42,3,26.51,10.39,26.51,5.73,0,14.21-7,21.21-30.75l4.88,1.48c-8.48,29.69-20.78,37.54-30.54,37.54-14.21,0-23.33-17-21.63-38l-0.42-.21c-8.06,26.72-18.24,38.17-30.33,38.17C686.15,532.55,675.12,520.46,675.12,498.83ZM722,498a288.23,288.23,0,0,0,10.39-43.9,23.44,23.44,0,0,0-14-4.45A22.77,22.77,0,0,0,702.27,456c-7.42,10.39-10.39,25.24-10.39,38.6,0,16.54,4.67,28.84,11.88,28.84C709.48,523.43,716.05,515.58,722,498Z" transform="translate(-395.62 -367.56)"/><path d="M798.54,471c10.82-5.73,24-9.12,40.5-9.54,3-7.42,3.39-8.69,9.12-24.18,8.27-22.48,13.36-36.48,20.15-47.5s15.27-18.24,24.39-19.72a31.82,31.82,0,0,1,18.87,8.69c-5.3,29.48-8.91,64.26-8.91,93.95,0,10.18.42,22.05,1.91,31,1.91,11.66,5.94,21.84,12.51,21.84,7.85,0,19.3-14,26.72-60.23L948.9,466c-7.63,48.78-20.78,69.35-37.11,69.35-12.3,0-19.51-11.66-23.12-25.24-3.18-12.09-3.82-26.08-3.82-38.17-10.39-1.06-22.69-1.7-31.81-1.7-2.33,0-4.45,0-7,.21a166.29,166.29,0,0,1-13.36,31.17c-10.18,17.81-24.39,31.81-39.87,31.81-13.15,0-24.39-10-24.39-23.54C768.43,495.65,780.73,480.38,798.54,471Zm-7.63,50.26c10.39,0,21.21-9.33,31.81-26.08A160.92,160.92,0,0,0,835,471c-11.45,1.27-22.48,3.61-32.45,8.06-15.06,6.79-25.66,17.6-25.66,28.42C776.91,515.37,782.85,521.31,790.91,521.31Zm93.95-56.2c0.64-21.84,2.76-40.93,4.45-54.08,1.27-10.39,3-19.93,3-24,0-3.18-1.27-5.3-4.45-5.3-2.54,0-5.3,1.48-8.06,4.45-5.09,5.51-10.39,16.33-14.63,26.93-5.51,13.78-9.33,27.57-15.91,48.14A229.3,229.3,0,0,1,884.86,465.11Z" transform="translate(-395.62 -367.56)"/><path d="M946.36,446c3.6-2.33,10-5.09,13.36-5.09,2.54,0,3.82,1.48,3.82,4.67,0,3-1.27,10-3,18.24-2.33,11.66-4.88,26.3-4.88,38,0,12.94,3.18,22.27,9.75,22.27,8.48,0,18.45-15.27,26.3-58.74l5.09,0.64c-9.54,53-22.27,66.38-36.05,66.38-11.66,0-21.42-9.33-21.42-31.17C939.36,485.89,944.24,465.32,946.36,446Zm6.36-36.48a11,11,0,0,1,22.06,0A11,11,0,1,1,952.72,409.55Z" transform="translate(-395.62 -367.56)"/><path d="M985.8,518.76c0-15.06,5.94-44.11,5.94-64.68a74.88,74.88,0,0,0-.42-8.27c3.61-2.33,10-4.88,13.15-4.88,3.82,0,4.45,3.6,4.45,7.85,0,11.45-4.45,30.33-5.94,42.41h0.64c7-26.51,18-50.68,34.78-50.68,8.06,0,13.57,5.51,13.57,12.51,0,6.57-4.88,10.6-10.39,12.51-1.48-5.73-4.88-10-10-10-7.85,0-14.63,10.82-19.93,24.81-5.94,15.69-8.69,31.6-9.33,48.56-3.82,1.91-8.06,3.6-10.39,3.6C987.29,532.55,985.8,526.18,985.8,518.76Z" transform="translate(-395.62 -367.56)"/></svg>